<svg width="25" height="26" viewBox="0 0 25 26" fill="none" xmlns="http://www.w3.org/2000/svg">
<g id="School">
<path id="Vector" d="M21.8747 6.50008C21.5984 6.50008 21.3335 6.61422 21.1381 6.81738C20.9428 7.02055 20.833 7.2961 20.833 7.58342V18.4167C20.833 19.2787 20.5038 20.1054 19.9177 20.7148C19.3317 21.3243 18.5368 21.6667 17.708 21.6667H7.29134C7.01507 21.6667 6.75012 21.7809 6.55477 21.984C6.35942 22.1872 6.24967 22.4628 6.24967 22.7501C6.24967 23.0374 6.35942 23.313 6.55477 23.5161C6.75012 23.7193 7.01507 23.8334 7.29134 23.8334H17.708C19.0893 23.8334 20.4141 23.2627 21.3909 22.2469C22.3676 21.2311 22.9163 19.8533 22.9163 18.4167V7.58342C22.9163 7.2961 22.8066 7.02055 22.6112 6.81738C22.4159 6.61422 22.1509 6.50008 21.8747 6.50008ZM18.7497 16.2501V5.41675C18.7497 4.55479 18.4204 3.72814 17.8344 3.11865C17.2483 2.50916 16.4535 2.16675 15.6247 2.16675H5.20801C4.37921 2.16675 3.58435 2.50916 2.9983 3.11865C2.41225 3.72814 2.08301 4.55479 2.08301 5.41675V16.2501C2.08301 17.112 2.41225 17.9387 2.9983 18.5482C3.58435 19.1577 4.37921 19.5001 5.20801 19.5001H15.6247C16.4535 19.5001 17.2483 19.1577 17.8344 18.5482C18.4204 17.9387 18.7497 17.112 18.7497 16.2501ZM10.4163 4.33341H12.4997V9.59841L12.1247 9.27342C11.9375 9.11128 11.7016 9.02249 11.458 9.02249C11.2144 9.02249 10.9785 9.11128 10.7913 9.27342L10.4163 9.59841V4.33341ZM4.16634 16.2501V5.41675C4.16634 5.12943 4.27609 4.85388 4.47144 4.65072C4.66679 4.44755 4.93174 4.33341 5.20801 4.33341H8.33301V11.9167C8.333 12.1238 8.39006 12.3266 8.49744 12.501C8.60482 12.6754 8.75802 12.8142 8.93888 12.9008C9.11975 12.9874 9.3207 13.0183 9.51794 12.9899C9.71518 12.9614 9.90043 12.8747 10.0518 12.7401L11.458 11.5159L12.8643 12.7401C13.0529 12.9079 13.2931 13.0001 13.5413 13.0001C13.692 12.999 13.8409 12.9658 13.9788 12.9026C14.1597 12.8156 14.3127 12.6764 14.4198 12.5017C14.5268 12.327 14.5835 12.124 14.583 11.9167V4.33341H15.6247C15.9009 4.33341 16.1659 4.44755 16.3612 4.65072C16.5566 4.85388 16.6663 5.12943 16.6663 5.41675V16.2501C16.6663 16.5374 16.5566 16.8129 16.3612 17.0161C16.1659 17.2193 15.9009 17.3334 15.6247 17.3334H5.20801C4.93174 17.3334 4.66679 17.2193 4.47144 17.0161C4.27609 16.8129 4.16634 16.5374 4.16634 16.2501Z" fill="black"/>
</g>
</svg>
