<svg width="25" height="25" viewBox="0 0 25 25" fill="none" xmlns="http://www.w3.org/2000/svg">
<g id="Pie" clip-path="url(#clip0_11_877)">
<g id="Layer 2">
<g id="pie-chart-2">
<path id="Vector" d="M15.1038 10.7603H22.0518C22.2811 10.7603 22.501 10.6692 22.6631 10.5071C22.8253 10.345 22.9163 10.1251 22.9163 9.89575C22.9163 7.82375 22.0932 5.83661 20.6281 4.37148C19.163 2.90635 17.1758 2.08325 15.1038 2.08325C14.8745 2.08325 14.6546 2.17434 14.4925 2.33648C14.3303 2.49862 14.2393 2.71853 14.2393 2.94784V9.89575C14.2393 10.1251 14.3303 10.345 14.4925 10.5071C14.6546 10.6692 14.8745 10.7603 15.1038 10.7603ZM15.9684 3.88534C17.2669 4.07222 18.4699 4.67452 19.3975 5.60211C20.3251 6.52971 20.9274 7.73273 21.1143 9.03117H15.9684V3.88534Z" fill="black"/>
<path id="Vector_2" d="M21.9584 12.5H13.4688C13.3443 12.5 13.221 12.4755 13.106 12.4278C12.991 12.3802 12.8865 12.3104 12.7985 12.2223C12.7105 12.1343 12.6407 12.0298 12.593 11.9148C12.5454 11.7998 12.5209 11.6765 12.5209 11.5521V3.04165C12.5217 2.90653 12.4939 2.77278 12.4394 2.64915C12.3848 2.52553 12.3048 2.41484 12.2044 2.32434C12.1041 2.23384 11.9857 2.16558 11.8572 2.12405C11.7286 2.08251 11.5927 2.06863 11.4584 2.08332C9.5029 2.29096 7.64615 3.04787 6.10283 4.26653C4.5595 5.4852 3.39266 7.11582 2.73723 8.96984C2.0818 10.8239 1.96456 12.8255 2.39907 14.7434C2.83357 16.6613 3.80208 18.417 5.19257 19.8074C6.58307 21.1979 8.33877 22.1665 10.2566 22.601C12.1745 23.0355 14.1762 22.9182 16.0302 22.2628C17.8842 21.6074 19.5148 20.4405 20.7335 18.8972C21.9522 17.3539 22.7091 15.4971 22.9167 13.5417C22.9283 13.409 22.9121 13.2753 22.8691 13.1493C22.8262 13.0232 22.7574 12.9075 22.6673 12.8095C22.5771 12.7115 22.4675 12.6333 22.3454 12.58C22.2234 12.5267 22.0916 12.4995 21.9584 12.5Z" fill="black"/>
</g>
</g>
</g>
<defs>
<clipPath id="clip0_11_877">
<rect width="25" height="25" fill="white"/>
</clipPath>
</defs>
</svg>
