<svg width="24" height="25" viewBox="0 0 24 25" fill="none" xmlns="http://www.w3.org/2000/svg">
<g id="&#240;&#159;&#166;&#134; icon &#34;clipboard&#34;">
<path id="Vector" d="M11.9643 0C11.0071 0 10.2551 0.6875 10.2551 1.5625V3.125H7.69133C7.21275 3.125 6.83673 3.46875 6.83673 3.90625V6.25H17.0918V3.90625C17.0918 3.46875 16.7158 3.125 16.2372 3.125H13.6735V1.5625C13.6735 0.6875 12.9214 0 11.9643 0ZM0.854592 3.125C0.37602 3.125 0 3.46875 0 3.90625V24.2188C0 24.6562 0.37602 25 0.854592 25H23.074C23.5525 25 23.9286 24.6562 23.9286 24.2188V3.90625C23.9286 3.46875 23.5525 3.125 23.074 3.125H20.5102V9.375H3.41837V3.125H0.854592Z" fill="black"/>
</g>
</svg>
